<svg xmlns="http://www.w3.org/2000/svg" viewBox="0 0 96 64" fill="none">
  <defs>
    <radialGradient id="vs3-glass-grad1" cx="30%" cy="30%" r="60%">
      <stop offset="0%" stop-color="#3B82F6" stop-opacity="0.6" />
      <stop offset="100%" stop-color="#3B82F6" stop-opacity="0" />
    </radialGradient>
    <radialGradient id="vs3-glass-grad2" cx="80%" cy="80%" r="60%">
      <stop offset="0%" stop-color="#8B5CF6" stop-opacity="0.6" />
      <stop offset="100%" stop-color="#8B5CF6" stop-opacity="0" />
    </radialGradient>
    <radialGradient id="vs3-glass-grad3" cx="70%" cy="20%" r="50%">
      <stop offset="0%" stop-color="#EC4899" stop-opacity="0.4" />
      <stop offset="100%" stop-color="#EC4899" stop-opacity="0" />
    </radialGradient>
    <linearGradient id="vs3-glass-panel" x1="0" y1="0" x2="1" y2="1">
      <stop offset="0%" stop-color="#FFFFFF" stop-opacity="0.25" />
      <stop offset="100%" stop-color="#FFFFFF" stop-opacity="0.05" />
    </linearGradient>
    <filter id="vs3-glass-blur" x="-20%" y="-20%" width="140%" height="140%">
      <feGaussianBlur stdDeviation="8" result="blur" />
    </filter>
  </defs>
  <rect x="6" y="6" width="84" height="52" rx="12" fill="#0F172A" />
  <circle cx="32" cy="24" r="22" fill="url(#vs3-glass-grad1)" filter="url(#vs3-glass-blur)" />
  <circle cx="72" cy="46" r="20" fill="url(#vs3-glass-grad2)" filter="url(#vs3-glass-blur)" />
  <circle cx="68" cy="18" r="16" fill="url(#vs3-glass-grad3)" filter="url(#vs3-glass-blur)" />
  <rect x="16" y="14" width="64" height="36" rx="10" fill="url(#vs3-glass-panel)" stroke="#FFFFFF" stroke-width="1" stroke-opacity="0.25" />
  <rect x="24" y="22" width="20" height="20" rx="6" fill="#FFFFFF" fill-opacity="0.15" stroke="#FFFFFF" stroke-width="1" stroke-opacity="0.2" />
  <path d="M26 26 C 28 24, 38 24, 42 28" fill="none" stroke="#FFFFFF" stroke-opacity="0.4" stroke-width="1" />
  <path d="M52 26 H 70 M52 32 H 68 M52 38 H 62" stroke="#FFFFFF" stroke-width="2" stroke-opacity="0.7" stroke-linecap="round" />
  <circle cx="70" cy="38" r="2" fill="#FFFFFF" fill-opacity="0.8" />
</svg>
